<svg xmlns="http://www.w3.org/2000/svg" width="619" height="447" viewBox="0 0 619 447" fill="none">
  <path d="M228.99 277.763C213.779 282.761 208.001 295.013 217.943 302.007C238.399 316.4 322.611 309.29 326.573 299.534C330.477 289.923 260.733 267.331 228.99 277.763Z" stroke="white" stroke-opacity="0.4" strokeWidth="0.985778" stroke-miterlimit="10"/>
  <path d="M266.683 245.751C301.43 236.2 359.774 304.2 335.691 320.254C320.884 330.125 285.04 328.892 255.809 325.647C228.368 322.602 189.158 310.151 179.485 289.472C174.362 278.494 177.437 262.853 188.285 257.376C196.681 253.138 208.016 255.044 210.516 254.34C222.436 258.219 224.185 259.727 233.682 260.637C246.095 261.828 257.128 248.377 266.683 245.751Z" stroke="white" stroke-opacity="0.4" strokeWidth="0.985778" stroke-miterlimit="10"/>
  <path d="M301.938 212.305C342.294 217.361 386.147 316.683 342.371 339.54C314.492 354.098 265.888 347.67 232.01 339.973C200.89 332.904 149.072 309.313 138.588 275.504C132.494 255.859 139.899 228.223 161.117 220.23C178.03 213.86 199.822 219.337 203.659 219.759C226.339 229.333 228.173 234.204 245.06 237.483C267.42 241.819 285.073 210.182 301.938 212.305Z" stroke="white" stroke-opacity="0.4" strokeWidth="0.985778" stroke-miterlimit="10"/>
  <path d="M334.638 179.083C379.195 188.402 409.965 329.308 346.495 359.046C305.532 378.237 244.155 366.725 205.655 354.519C170.827 343.481 106.618 308.744 95.1361 261.755C88.2095 233.418 99.7685 193.848 131.389 183.303C156.797 174.827 189.247 183.526 194.24 185.398C229.149 198.493 229.591 208.899 253.894 214.547C286.178 222.07 311.303 174.212 334.638 179.083Z" stroke="white" stroke-opacity="0.4" strokeWidth="0.985778" stroke-miterlimit="10"/>
  <path d="M365.371 147.371C414.715 160.816 431.735 343.302 348.653 380.066C294.552 403.793 220.425 387.323 177.338 370.582C138.761 355.597 62.2414 309.718 49.7029 249.518C41.9957 212.513 57.6569 160.995 99.6838 147.882C133.602 137.309 176.45 149.711 182.847 152.539C227.845 172.438 229.009 185.149 260.722 193.126C302.936 203.835 335.835 139.325 365.371 147.371Z" stroke="white" stroke-opacity="0.4" strokeWidth="0.985778" stroke-miterlimit="10"/>
  <path d="M66.5977 112.883C109.011 100.215 162.233 116.303 170.072 120.105C225.039 146.764 227.072 161.726 266.182 172.106C318.336 185.947 359.203 104.62 394.697 116.06C449.219 133.634 452.279 357.934 349.404 401.488C282.278 429.906 195.26 408.343 147.61 387.043C105.292 368.129 16.5174 311.107 2.89256 237.685C-5.57691 192.016 14.157 128.544 66.5977 112.883Z" stroke="white" stroke-opacity="0.4" strokeWidth="0.985778" stroke-miterlimit="10"/>
  <path d="M525.554 89.771C508.847 89.6613 488.812 66.9282 503.795 63.1321C512.449 60.9365 535.36 64.409 544.36 70.5885C557.035 79.2842 537.051 89.849 525.554 89.771Z" stroke="white" stroke-opacity="0.4" strokeWidth="0.985778" stroke-miterlimit="10"/>
  <path d="M480.151 66.3157C481.786 63.265 489.441 61.9101 496.427 58.1949C510.597 50.6548 512.629 47.0725 522.693 42.5253C526.619 40.7486 531.899 38.4143 537.054 39.4832C544.949 41.1213 546.92 48.2107 556.939 60.6967C569.931 76.921 574.85 81.1158 571.138 89.7133C570.273 91.7124 569.154 98.1865 562.897 102.136C554.233 107.596 544.077 103.378 531.38 106.992C516.131 111.325 508.571 119.039 501.954 115.63C497.292 113.229 497.119 106.654 493.628 95.2051C490.969 86.4834 489.298 80.7604 486.065 76.0919C482.187 70.5336 478.332 69.7073 480.151 66.3157Z" stroke="white" stroke-opacity="0.4" strokeWidth="0.985778" stroke-miterlimit="10"/>
  <path d="M454.613 72.6743C454.897 67.2662 465.723 64.6488 474.646 56.8342C492.943 40.8035 484.466 29.3488 499.133 17.6371C505.357 12.6652 515.122 7.84935 524.91 8.78248C538.8 10.1085 543.465 21.3667 564.849 44.1922C592.806 74.035 604.714 79.8793 602.104 95.7829C601.57 99.0243 601.05 111.47 590.125 118.961C575.554 128.951 558.088 119.862 535.276 127.371C509.786 135.749 500.26 153.66 491.665 149.953C485.696 147.379 487.983 137.014 483.395 116.797C480.147 102.427 478.14 94.0293 471.648 87.1508C463.455 78.4753 454.308 78.5475 454.613 72.6743Z" stroke="white" stroke-opacity="0.4" strokeWidth="0.985778" stroke-miterlimit="10"/>
  <path d="M429.05 78.9635C427.946 71.2125 441.964 67.3153 452.838 55.4013C475.227 30.8742 455.924 11.7032 475.548 -7.32337C483.947 -15.4644 498.353 -22.7474 512.74 -21.9876C532.68 -20.9361 540.048 -5.59579 572.762 27.6184C615.773 71.016 634.295 78.6573 633.08 101.783C632.84 106.293 632.951 124.678 617.363 135.725C596.882 150.237 572.07 136.26 539.187 147.686C503.431 160.108 491.971 188.209 481.373 184.216C474.101 181.454 478.759 167.31 473.158 138.325C469.291 118.308 466.96 107.275 457.224 98.1461C444.675 86.3823 430.232 87.3125 429.05 78.9635Z" stroke="white" stroke-opacity="0.4" strokeWidth="0.985778" stroke-miterlimit="10"/>
  <path d="M403.428 85.2354C400.95 75.1501 418.121 69.9587 430.973 53.9539C457.405 20.916 427.235 -5.89624 451.907 -32.2983C462.453 -43.594 481.535 -53.3471 500.514 -52.7751C526.519 -51.9893 536.473 -32.5149 580.602 11.0301C638.53 68.0578 663.739 77.4757 663.964 107.769C664.008 113.547 664.737 137.855 644.506 152.473C618.089 171.488 585.979 152.632 543.001 167.986C496.972 184.436 483.579 222.752 471.022 218.465C462.442 215.524 469.475 197.589 462.862 159.839C458.366 134.171 455.725 120.518 442.745 109.127C425.828 94.2893 406.094 96.0805 403.428 85.2354Z" stroke="white" stroke-opacity="0.4" strokeWidth="0.985778" stroke-miterlimit="10"/>
  <path d="M377.759 91.5044C381.909 104.851 406.927 102.193 428.207 120.105C444.435 133.761 447.385 150.029 452.511 181.35C460.122 227.862 450.725 249.59 460.612 252.707C475.146 257.292 490.469 208.758 546.78 188.284C599.828 168.997 639.303 192.773 671.612 169.217C696.52 151.054 695.135 120.824 694.811 113.749C693.095 76.297 661.239 65.0937 588.39 -5.56401C532.842 -59.4399 520.314 -83.0425 488.23 -83.5654C464.663 -83.9496 440.893 -71.7207 428.207 -57.276C398.501 -23.4754 439.597 10.9925 409.059 52.5037C394.259 72.6194 373.896 79.0877 377.759 91.5044Z" stroke="white" stroke-opacity="0.4" strokeWidth="0.985778" stroke-miterlimit="10"/>
  <path d="M590.066 306.326C585.706 304.593 576.552 307.932 575.741 313.135C574.825 319.037 585.183 323.92 589.734 322.403C595.118 320.606 595.851 308.62 590.066 306.326Z" stroke="white" stroke-opacity="0.4" strokeWidth="0.985778" stroke-miterlimit="10"/>
  <path d="M602.35 337.685C609.781 332.234 613.029 322.23 616.745 305.081C620.427 288.077 619.849 275.903 616.612 275.019C614.848 274.542 609.851 278.272 605.565 281.004C597.541 286.106 583.806 285.54 580.286 286.092C567.397 288.114 563.612 291.87 558.224 299.063C555.731 302.386 549.917 309.752 547.358 318.419C543.454 331.544 525.959 335.588 528.092 340.849C529.885 345.24 547.218 346.306 558.456 346.43C574.563 346.609 590.861 346.104 602.35 337.685Z" stroke="white" stroke-opacity="0.4" strokeWidth="0.985778" stroke-miterlimit="10"/>
  <path d="M615.231 352.341C627.446 342.6 632.251 326.251 639.653 295.677C647.172 264.956 647.124 243.884 643.42 243.099C640.64 242.498 631.636 250.093 623.984 255.521C609.56 265.797 583.74 264.107 578.419 264.766C554.152 267.707 548.171 274.753 538.767 288.071C534.849 293.618 524.1 307.138 519.202 323.105C511.664 347.566 475.927 353.97 478.884 363.039C481.355 370.59 514.496 371.749 535.349 371.128C564.794 370.229 594.592 368.808 615.231 352.341Z" stroke="white" stroke-opacity="0.4" strokeWidth="0.985778" stroke-miterlimit="10"/>
  <path d="M628.042 366.901C645.051 352.873 651.359 330.168 662.487 286.179C673.788 241.732 674.315 211.811 670.154 211.066C666.343 210.373 653.34 221.813 642.345 229.951C621.558 245.427 583.618 242.582 576.493 243.327C540.855 247.059 532.647 257.497 519.25 276.969C513.903 284.737 498.227 304.414 490.984 327.672C479.823 363.472 425.839 372.231 429.614 385.11C432.766 395.823 481.723 397.12 512.184 395.701C554.958 393.809 598.3 391.434 628.042 366.901Z" stroke="white" stroke-opacity="0.4" strokeWidth="0.985778" stroke-miterlimit="10"/>
  <path d="M640.813 381.453C662.627 363.137 670.43 334.074 685.285 276.668C700.383 218.502 701.487 179.741 696.855 179.022C692.009 178.262 675 193.501 660.668 204.355C633.477 224.997 583.463 221.024 574.534 221.877C527.524 226.351 517.026 240.207 499.697 265.852C492.899 275.836 472.318 301.675 462.737 332.228C447.941 379.364 375.711 390.481 380.314 407.17C384.14 421.037 448.913 422.421 488.985 420.266C545.071 417.299 601.982 414.06 640.813 381.453Z" stroke="white" stroke-opacity="0.4" strokeWidth="0.985778" stroke-miterlimit="10"/>
  <path d="M572.556 200.417C514.18 205.618 501.486 222.951 480.129 254.73C471.917 266.947 446.391 298.93 434.467 336.775C416.055 395.253 325.568 408.724 330.992 429.222C335.5 446.266 416.085 447.711 465.767 444.822C535.187 440.777 605.657 436.681 653.569 395.999C680.188 373.393 689.483 337.98 708.068 267.152C726.933 195.264 728.615 147.671 723.534 146.972C717.642 146.163 696.652 165.172 678.977 178.75C645.379 204.554 583.294 199.461 572.556 200.417Z" stroke="white" stroke-opacity="0.4" strokeWidth="0.985778" stroke-miterlimit="10"/>
  <path d="M97.8979 61.4594C104.526 81.3931 152.102 72.03 208.737 116.927C229.031 133.016 242.637 149.844 269.497 152.461C272.207 152.724 299.114 155.032 318.104 141.483C341.995 124.438 327.413 100.792 355.296 67.8151C365.566 55.6671 367.275 59.1945 374.813 49.6147C406.982 8.72179 357.918 -32.7923 386.228 -74.3208C399.26 -93.4369 418.633 -97.8252 416.792 -100.321C408.845 -111.031 79.9868 7.74533 97.8979 61.4594Z" stroke="white" stroke-opacity="0.4" strokeWidth="0.985778" stroke-miterlimit="10"/>
  <path d="M276.861 125.21C278.489 125.036 296.231 126.076 308.401 116.497C323.79 104.401 312.82 87.7459 330.451 65.2613C336.939 56.9816 337.842 59.2263 342.459 52.677C362.16 24.7294 326.802 -3.38575 344.116 -30.744C352.129 -43.4091 364.778 -46.3125 362.896 -47.549C354.386 -53.1882 137.321 30.1202 154.371 66.3706C160.763 79.966 195.661 75.1414 235.593 104.424C250.113 115.064 259.945 127.009 276.861 125.21Z" stroke="white" stroke-opacity="0.4" strokeWidth="0.985778" stroke-miterlimit="10"/>
  <path d="M284.226 97.9554C284.69 97.0396 293.366 97.0598 298.698 91.5102C305.621 84.3109 298.249 74.7196 305.606 62.7103C308.305 58.3018 308.416 59.2436 310.11 55.7393C317.382 40.6677 295.656 26.0381 302.008 12.8299C304.98 6.61288 310.504 5.55263 309.031 5.22041C298.263 6.41932 194.877 52.5759 210.825 71.2818C217.052 78.5908 239.342 78.2413 262.43 91.9204C271.205 97.1205 276.95 100.928 284.226 97.9554Z" stroke="white" stroke-opacity="0.4" strokeWidth="0.985778" stroke-miterlimit="10"/>
  <path d="M291.591 70.704C285.876 57.6027 263.377 53.1479 255.135 57.9927C242.984 65.1457 253.349 74.4596 267.287 76.193C277.705 77.4786 298.131 85.6976 291.591 70.704Z" stroke="white" stroke-opacity="0.4" strokeWidth="0.985778" stroke-miterlimit="10"/>
</svg>